<svg width="400.614" height="174.053" viewBox="0 0 105.996 46.051" xmlns="http://www.w3.org/2000/svg"><defs><path id="a" d="M-622.067 254.26H423.051v753.925H-622.067z"/></defs><path style="fill:#282a36;fill-opacity:1;stroke-width:.79375;stroke-linejoin:bevel" d="M-13.234-24.529h134.816v97.89H-13.234z"/><g aria-label="__ _ __ / /_(_)___ / /_____ ____ / __/ / __ \/ __/ __ \/ __ \ / /_/ / /_/ / /_/ /_/ / /_/ / \__/_/ .___/\__/\____/ .___/ /_/ /_/" transform="matrix(.26458 0 0 .26458 173.516 -64.8)" style="font-size:18.6667px;line-height:1.25;font-family:'Helvetica Neue';-inkscape-font-specification:'Helvetica Neue, Normal';letter-spacing:0;white-space:pre;shape-inside:url(#a)"><path d="M-586.648 274.336v-2.374h10.722v2.374z" style="font-weight:700;font-family:'Fira Code';-inkscape-font-specification:'Fira Code Bold';fill:#bd93f9"/><path d="M-576.31 274.336v-2.374h10.722v2.374zM-540.699 274.336v-2.374h9.573v2.374zM-448.802 274.336v-2.374h10.722v2.374z" style="font-weight:700;font-family:'Fira Code';-inkscape-font-specification:'Fira Code Bold';fill:#bd93f9"/><path d="M-438.463 274.336v-2.374h10.721v2.374zM-596.182 296.435l-2.364-1.081 8.05-16.705 2.345 1.082zM-573.208 296.435l-2.364-1.081 8.05-16.705 2.346 1.082zM-563.673 297.852v-2.374h9.572v2.374zM-548.156 287.59q0 1.187.182 2.192.182.996.603 1.934t1.12 1.915q.699.966 1.733 2.086l-1.762 1.59q-1.512-1.302-2.623-2.748-1.11-1.445-1.713-3.159-.603-1.713-.603-3.81 0-2.096.603-3.81.603-1.713 1.713-3.159 1.11-1.445 2.623-2.747l1.762 1.589q-1.283 1.398-2.087 2.661-.804 1.254-1.178 2.575-.373 1.312-.373 2.891zM-540.699 297.852v-2.374h9.573v2.374zM-523.67 287.59q0-1.58-.373-2.89-.373-1.322-1.177-2.576-.794-1.263-2.087-2.661l1.762-1.589q1.512 1.302 2.622 2.747 1.11 1.446 1.714 3.16.603 1.713.603 3.81 0 2.096-.603 3.81-.603 1.713-1.714 3.158-1.11 1.446-2.622 2.747l-1.762-1.589q1.034-1.12 1.733-2.086.699-.977 1.12-1.915.421-.938.603-1.934.182-1.005.182-2.192zM-517.725 297.852v-2.374h10.722v2.374z" style="font-weight:700;font-family:'Fira Code';-inkscape-font-specification:'Fira Code Bold';fill:#bd93f9"/><path d="M-507.386 297.852v-2.374h11.87v2.374z" style="font-weight:700;font-family:'Fira Code';-inkscape-font-specification:'Fira Code Bold';fill:#bd93f9"/><path d="M-495.899 297.852v-2.374h10.721v2.374zM-458.336 296.435l-2.364-1.081 8.05-16.705 2.346 1.082zM-435.362 296.435l-2.364-1.081 8.05-16.705 2.346 1.082zM-425.827 297.852v-2.374h10.721v2.374z" style="font-weight:700;font-family:'Fira Code';-inkscape-font-specification:'Fira Code Bold';fill:#bd93f9"/><path d="M-415.489 297.852v-2.374h11.87v2.374z" style="font-weight:700;font-family:'Fira Code';-inkscape-font-specification:'Fira Code Bold';fill:#bd93f9"/><path d="M-404.002 297.852v-2.374h11.87v2.374z" style="font-weight:700;font-family:'Fira Code';-inkscape-font-specification:'Fira Code Bold';fill:#bd93f9"/><path d="M-392.514 297.852v-2.374h11.87v2.374z" style="font-weight:700;font-family:'Fira Code';-inkscape-font-specification:'Fira Code Bold';fill:#bd93f9"/><path d="M-381.027 297.852v-2.374h10.721v2.374zM-345.417 297.852v-2.374h10.721v2.374z" style="font-weight:700;font-family:'Fira Code';-inkscape-font-specification:'Fira Code Bold';fill:#bd93f9"/><path d="M-335.079 297.852v-2.374h11.87v2.374z" style="font-weight:700;font-family:'Fira Code';-inkscape-font-specification:'Fira Code Bold';fill:#bd93f9"/><path d="M-323.591 297.852v-2.374h11.87v2.374z" style="font-weight:700;font-family:'Fira Code';-inkscape-font-specification:'Fira Code Bold';fill:#bd93f9"/><path d="M-312.104 297.852v-2.374h10.721v2.374zM-607.67 319.951l-2.364-1.082 8.051-16.704 2.345 1.082zM-586.648 321.368v-2.374h10.722v2.374z" style="font-weight:700;font-family:'Fira Code';-inkscape-font-specification:'Fira Code Bold';fill:#bd93f9"/><path d="M-576.31 321.368v-2.374h10.722v2.374zM-561.72 319.951l-2.365-1.082 8.05-16.704 2.346 1.082zM-538.746 319.951l-2.365-1.082 8.051-16.704 2.345 1.082zM-517.725 321.368v-2.374h10.722v2.374z" style="font-weight:700;font-family:'Fira Code';-inkscape-font-specification:'Fira Code Bold';fill:#bd93f9"/><path d="M-507.386 321.368v-2.374h10.721v2.374zM-470.819 317.807l6.376-13.268h-3.36l-4.93 10.3-4.93-10.3h-3.36l6.394 13.268zM-448.802 321.368v-2.374h10.722v2.374z" style="font-weight:700;font-family:'Fira Code';-inkscape-font-specification:'Fira Code Bold';fill:#bd93f9"/><path d="M-438.463 321.368v-2.374h10.721v2.374zM-423.874 319.951l-2.365-1.082 8.05-16.704 2.346 1.082zM-402.853 321.368v-2.374h10.722v2.374z" style="font-weight:700;font-family:'Fira Code';-inkscape-font-specification:'Fira Code Bold';fill:#bd93f9"/><path d="M-392.514 321.368v-2.374h10.721v2.374zM-355.947 317.807l6.376-13.268h-3.36l-4.93 10.3-4.93-10.3h-3.36l6.394 13.268zM-333.93 321.368v-2.374h10.722v2.374z" style="font-weight:700;font-family:'Fira Code';-inkscape-font-specification:'Fira Code Bold';fill:#bd93f9"/><path d="M-323.591 321.368v-2.374h10.721v2.374zM-299.88 303.247l2.365-1.082 8.031 16.704-2.364 1.082zM-619.156 343.467l-2.365-1.082 8.05-16.704 2.346 1.081zM-596.182 343.467l-2.364-1.082 8.05-16.704 2.345 1.081zM-586.648 344.883v-2.374h9.573v2.374zM-573.208 343.467l-2.364-1.082 8.05-16.704 2.346 1.081zM-550.233 343.467l-2.365-1.082 8.05-16.704 2.346 1.081zM-527.259 343.467l-2.364-1.082 8.05-16.704 2.346 1.081zM-517.725 344.883v-2.374h9.573v2.374zM-504.285 343.467l-2.364-1.082 8.05-16.704 2.346 1.081zM-481.31 343.467l-2.365-1.082 8.05-16.704 2.346 1.081zM-458.336 343.467l-2.364-1.082 8.05-16.704 2.346 1.081zM-448.802 344.883v-2.374h9.573v2.374zM-435.362 343.467l-2.364-1.082 8.05-16.704 2.346 1.081zM-412.387 343.467l-2.365-1.082 8.051-16.704 2.345 1.081zM-402.853 344.883v-2.374h9.573v2.374zM-389.413 343.467l-2.364-1.082 8.05-16.704 2.346 1.081zM-366.439 343.467l-2.364-1.082 8.05-16.704 2.346 1.081zM-343.464 343.467l-2.365-1.082 8.051-16.704 2.345 1.081zM-333.93 344.883v-2.374h9.573v2.374zM-320.49 343.467l-2.364-1.082 8.05-16.704 2.346 1.081zM-297.515 343.467l-2.365-1.082 8.05-16.704 2.346 1.081zM-621.52 350.278l2.364-1.082 8.031 16.705-2.364 1.081zM-609.622 368.4v-2.375h10.721v2.374z" style="font-weight:700;font-family:'Fira Code';-inkscape-font-specification:'Fira Code Bold';fill:#bd93f9"/><path d="M-599.284 368.4v-2.375h10.722v2.374zM-584.695 366.982l-2.364-1.081 8.05-16.705 2.346 1.082zM-575.16 368.4v-2.375h9.572v2.374zM-561.72 366.982l-2.365-1.081 8.05-16.705 2.346 1.082zM-538.047 363.029q0-.584.287-1.063.287-.488.775-.775.488-.297 1.072-.297.594 0 1.073.297.488.287.775.775.287.479.287 1.063 0 .574-.287 1.062-.287.489-.775.776-.48.297-1.073.297-.584 0-1.072-.297-.488-.287-.775-.776-.287-.488-.287-1.062zM-529.212 368.4v-2.375h10.722v2.374z" style="font-weight:700;font-family:'Fira Code';-inkscape-font-specification:'Fira Code Bold';fill:#bd93f9"/><path d="M-518.873 368.4v-2.375h11.87v2.374z" style="font-weight:700;font-family:'Fira Code';-inkscape-font-specification:'Fira Code Bold';fill:#bd93f9"/><path d="M-507.386 368.4v-2.375h10.721v2.374zM-492.797 366.982l-2.365-1.081 8.05-16.705 2.346 1.082zM-483.675 350.278l2.365-1.082 8.031 16.705-2.364 1.081zM-471.776 368.4v-2.375h10.722v2.374z" style="font-weight:700;font-family:'Fira Code';-inkscape-font-specification:'Fira Code Bold';fill:#bd93f9"/><path d="M-461.437 368.4v-2.375h10.721v2.374zM-446.849 366.982l-2.364-1.081 8.05-16.705 2.346 1.082zM-437.726 350.278l2.364-1.082 8.032 16.705-2.365 1.081zM-425.827 368.4v-2.375h10.721v2.374z" style="font-weight:700;font-family:'Fira Code';-inkscape-font-specification:'Fira Code Bold';fill:#bd93f9"/><path d="M-415.489 368.4v-2.375h11.87v2.374z" style="font-weight:700;font-family:'Fira Code';-inkscape-font-specification:'Fira Code Bold';fill:#bd93f9"/><path d="M-404.002 368.4v-2.375h11.87v2.374z" style="font-weight:700;font-family:'Fira Code';-inkscape-font-specification:'Fira Code Bold';fill:#bd93f9"/><path d="M-392.514 368.4v-2.375h10.721v2.374zM-377.926 366.982l-2.364-1.081 8.05-16.705 2.346 1.082zM-354.253 363.029q0-.584.288-1.063.287-.488.775-.775.488-.297 1.072-.297.594 0 1.072.297.489.287.776.775.287.479.287 1.063 0 .574-.287 1.062-.287.489-.776.776-.478.297-1.072.297-.584 0-1.072-.297-.488-.287-.775-.776-.288-.488-.288-1.062zM-345.417 368.4v-2.375h10.721v2.374z" style="font-weight:700;font-family:'Fira Code';-inkscape-font-specification:'Fira Code Bold';fill:#bd93f9"/><path d="M-335.079 368.4v-2.375h11.87v2.374z" style="font-weight:700;font-family:'Fira Code';-inkscape-font-specification:'Fira Code Bold';fill:#bd93f9"/><path d="M-323.591 368.4v-2.375h10.721v2.374zM-309.003 366.982l-2.364-1.081 8.05-16.705 2.346 1.082zM-573.208 390.498l-2.364-1.082 8.05-16.704 2.346 1.082zM-563.673 391.915v-2.374h9.572v2.374zM-550.233 390.498l-2.365-1.082 8.05-16.704 2.346 1.082zM-389.413 390.498l-2.364-1.082 8.05-16.704 2.346 1.082zM-379.878 391.915v-2.374h9.572v2.374zM-366.439 390.498l-2.364-1.082 8.05-16.704 2.346 1.082z" style="font-weight:700;font-family:'Fira Code';-inkscape-font-specification:'Fira Code Bold';fill:#bd93f9"/></g></svg>